<mxfile host="Electron" modified="2024-03-20T12:15:03.648Z" agent="Mozilla/5.0 (X11; Linux x86_64) AppleWebKit/537.36 (KHTML, like Gecko) draw.io/22.1.2 Chrome/114.0.5735.289 Electron/25.9.4 Safari/537.36" etag="pEMKgtxZhwxHWjITQ5CJ" version="22.1.2" type="device">
  <diagram name="Page-1" id="OOwkSEOufSbgSdbPdrM7">
    <mxGraphModel dx="1114" dy="820" grid="1" gridSize="10" guides="1" tooltips="1" connect="1" arrows="1" fold="1" page="1" pageScale="1" pageWidth="827" pageHeight="1169" math="0" shadow="0">
      <root>
        <mxCell id="0" />
        <mxCell id="1" parent="0" />
        <mxCell id="EbzEwfZ4jWfW755_oU14-1" value="" style="image;html=1;image=img/lib/clip_art/computers/Laptop_128x128.png" vertex="1" parent="1">
          <mxGeometry x="30" y="140" width="80" height="80" as="geometry" />
        </mxCell>
        <mxCell id="EbzEwfZ4jWfW755_oU14-2" value="PostgreSQL&lt;br&gt;DB" style="rounded=0;whiteSpace=wrap;html=1;fillColor=#e1d5e7;strokeColor=#9673a6;" vertex="1" parent="1">
          <mxGeometry x="265" y="308" width="120" height="60" as="geometry" />
        </mxCell>
        <mxCell id="EbzEwfZ4jWfW755_oU14-3" value="orchestration-service" style="rounded=0;whiteSpace=wrap;html=1;fillColor=#d5e8d4;strokeColor=#82b366;" vertex="1" parent="1">
          <mxGeometry x="510" y="308" width="120" height="60" as="geometry" />
        </mxCell>
        <mxCell id="EbzEwfZ4jWfW755_oU14-6" value="RabbitMQ&lt;br&gt;Queue: ingress" style="rounded=0;whiteSpace=wrap;html=1;fillColor=#e1d5e7;strokeColor=#9673a6;" vertex="1" parent="1">
          <mxGeometry x="510" y="160" width="120" height="60" as="geometry" />
        </mxCell>
        <mxCell id="EbzEwfZ4jWfW755_oU14-7" value="" style="endArrow=classic;html=1;rounded=0;exitX=1;exitY=0.5;exitDx=0;exitDy=0;entryX=-0.024;entryY=0.383;entryDx=0;entryDy=0;entryPerimeter=0;" edge="1" parent="1" source="EbzEwfZ4jWfW755_oU14-1" target="EbzEwfZ4jWfW755_oU14-11">
          <mxGeometry width="50" height="50" relative="1" as="geometry">
            <mxPoint x="240" y="420" as="sourcePoint" />
            <mxPoint x="440" y="400" as="targetPoint" />
          </mxGeometry>
        </mxCell>
        <mxCell id="EbzEwfZ4jWfW755_oU14-8" value="in: prompt&lt;br&gt;out: uuid" style="edgeLabel;html=1;align=center;verticalAlign=middle;resizable=0;points=[];" vertex="1" connectable="0" parent="EbzEwfZ4jWfW755_oU14-7">
          <mxGeometry x="0.1739" y="1" relative="1" as="geometry">
            <mxPoint as="offset" />
          </mxGeometry>
        </mxCell>
        <mxCell id="EbzEwfZ4jWfW755_oU14-9" value="classification-service" style="rounded=0;whiteSpace=wrap;html=1;fillColor=#fff2cc;strokeColor=#d6b656;" vertex="1" parent="1">
          <mxGeometry x="760" y="490" width="170" height="60" as="geometry" />
        </mxCell>
        <mxCell id="EbzEwfZ4jWfW755_oU14-10" value="image-generation-service" style="rounded=0;whiteSpace=wrap;html=1;fillColor=#fff2cc;strokeColor=#d6b656;" vertex="1" parent="1">
          <mxGeometry x="760" y="850" width="170" height="60" as="geometry" />
        </mxCell>
        <mxCell id="EbzEwfZ4jWfW755_oU14-11" value="ingress-service" style="rounded=0;whiteSpace=wrap;html=1;fillColor=#fff2cc;strokeColor=#d6b656;" vertex="1" parent="1">
          <mxGeometry x="240" y="160" width="170" height="60" as="geometry" />
        </mxCell>
        <mxCell id="EbzEwfZ4jWfW755_oU14-12" value="" style="endArrow=classic;html=1;rounded=0;exitX=1;exitY=0.5;exitDx=0;exitDy=0;entryX=0;entryY=0.5;entryDx=0;entryDy=0;" edge="1" parent="1" source="EbzEwfZ4jWfW755_oU14-11" target="EbzEwfZ4jWfW755_oU14-6">
          <mxGeometry width="50" height="50" relative="1" as="geometry">
            <mxPoint x="390" y="450" as="sourcePoint" />
            <mxPoint x="440" y="400" as="targetPoint" />
          </mxGeometry>
        </mxCell>
        <mxCell id="EbzEwfZ4jWfW755_oU14-15" value="put new prompt&lt;br&gt;into ingress&lt;br&gt;queue" style="edgeLabel;html=1;align=center;verticalAlign=middle;resizable=0;points=[];" vertex="1" connectable="0" parent="EbzEwfZ4jWfW755_oU14-12">
          <mxGeometry x="-0.08" relative="1" as="geometry">
            <mxPoint as="offset" />
          </mxGeometry>
        </mxCell>
        <mxCell id="EbzEwfZ4jWfW755_oU14-13" value="" style="endArrow=classic;html=1;rounded=0;exitX=0.5;exitY=0;exitDx=0;exitDy=0;entryX=0.5;entryY=1;entryDx=0;entryDy=0;" edge="1" parent="1" source="EbzEwfZ4jWfW755_oU14-3" target="EbzEwfZ4jWfW755_oU14-6">
          <mxGeometry width="50" height="50" relative="1" as="geometry">
            <mxPoint x="390" y="450" as="sourcePoint" />
            <mxPoint x="440" y="400" as="targetPoint" />
          </mxGeometry>
        </mxCell>
        <mxCell id="EbzEwfZ4jWfW755_oU14-14" value="check for new prompt" style="edgeLabel;html=1;align=center;verticalAlign=middle;resizable=0;points=[];" vertex="1" connectable="0" parent="EbzEwfZ4jWfW755_oU14-13">
          <mxGeometry x="-0.1706" y="1" relative="1" as="geometry">
            <mxPoint as="offset" />
          </mxGeometry>
        </mxCell>
        <mxCell id="EbzEwfZ4jWfW755_oU14-16" value="" style="endArrow=classic;html=1;rounded=0;exitX=0;exitY=0.5;exitDx=0;exitDy=0;entryX=1;entryY=0.5;entryDx=0;entryDy=0;" edge="1" parent="1" source="EbzEwfZ4jWfW755_oU14-3" target="EbzEwfZ4jWfW755_oU14-2">
          <mxGeometry width="50" height="50" relative="1" as="geometry">
            <mxPoint x="390" y="398" as="sourcePoint" />
            <mxPoint x="440" y="348" as="targetPoint" />
          </mxGeometry>
        </mxCell>
        <mxCell id="EbzEwfZ4jWfW755_oU14-17" value="persist prompt&lt;br&gt;in the database" style="edgeLabel;html=1;align=center;verticalAlign=middle;resizable=0;points=[];" vertex="1" connectable="0" parent="EbzEwfZ4jWfW755_oU14-16">
          <mxGeometry x="0.232" y="-3" relative="1" as="geometry">
            <mxPoint x="17" y="3" as="offset" />
          </mxGeometry>
        </mxCell>
        <mxCell id="EbzEwfZ4jWfW755_oU14-18" value="orchestration-service" style="rounded=0;whiteSpace=wrap;html=1;fillColor=#d5e8d4;strokeColor=#82b366;" vertex="1" parent="1">
          <mxGeometry x="265" y="490" width="120" height="60" as="geometry" />
        </mxCell>
        <mxCell id="EbzEwfZ4jWfW755_oU14-19" value="" style="endArrow=classic;html=1;rounded=0;entryX=0.5;entryY=1;entryDx=0;entryDy=0;exitX=0.5;exitY=0;exitDx=0;exitDy=0;" edge="1" parent="1" source="EbzEwfZ4jWfW755_oU14-18" target="EbzEwfZ4jWfW755_oU14-2">
          <mxGeometry width="50" height="50" relative="1" as="geometry">
            <mxPoint x="325" y="480" as="sourcePoint" />
            <mxPoint x="440" y="400" as="targetPoint" />
          </mxGeometry>
        </mxCell>
        <mxCell id="EbzEwfZ4jWfW755_oU14-20" value="check for prompt with&lt;br&gt;status NEW" style="edgeLabel;html=1;align=center;verticalAlign=middle;resizable=0;points=[];" vertex="1" connectable="0" parent="EbzEwfZ4jWfW755_oU14-19">
          <mxGeometry x="-0.0235" y="-1" relative="1" as="geometry">
            <mxPoint as="offset" />
          </mxGeometry>
        </mxCell>
        <mxCell id="EbzEwfZ4jWfW755_oU14-21" value="RabbitMQ&lt;br&gt;Queue: classification" style="rounded=0;whiteSpace=wrap;html=1;fillColor=#e1d5e7;strokeColor=#9673a6;" vertex="1" parent="1">
          <mxGeometry x="510" y="490" width="120" height="60" as="geometry" />
        </mxCell>
        <mxCell id="EbzEwfZ4jWfW755_oU14-22" value="" style="endArrow=classic;html=1;rounded=0;exitX=1;exitY=0.5;exitDx=0;exitDy=0;entryX=0;entryY=0.5;entryDx=0;entryDy=0;" edge="1" parent="1" source="EbzEwfZ4jWfW755_oU14-18" target="EbzEwfZ4jWfW755_oU14-21">
          <mxGeometry width="50" height="50" relative="1" as="geometry">
            <mxPoint x="390" y="450" as="sourcePoint" />
            <mxPoint x="440" y="400" as="targetPoint" />
          </mxGeometry>
        </mxCell>
        <mxCell id="EbzEwfZ4jWfW755_oU14-24" value="put new prompt&lt;br&gt;to classification&lt;br&gt;queue" style="edgeLabel;html=1;align=center;verticalAlign=middle;resizable=0;points=[];" vertex="1" connectable="0" parent="EbzEwfZ4jWfW755_oU14-22">
          <mxGeometry x="-0.296" y="-2" relative="1" as="geometry">
            <mxPoint x="21" y="-2" as="offset" />
          </mxGeometry>
        </mxCell>
        <mxCell id="EbzEwfZ4jWfW755_oU14-23" value="" style="endArrow=classic;html=1;rounded=0;exitX=1;exitY=0.5;exitDx=0;exitDy=0;entryX=0;entryY=0.5;entryDx=0;entryDy=0;" edge="1" parent="1" source="EbzEwfZ4jWfW755_oU14-21" target="EbzEwfZ4jWfW755_oU14-9">
          <mxGeometry width="50" height="50" relative="1" as="geometry">
            <mxPoint x="395" y="530" as="sourcePoint" />
            <mxPoint x="520" y="530" as="targetPoint" />
          </mxGeometry>
        </mxCell>
        <mxCell id="EbzEwfZ4jWfW755_oU14-25" value="check for prompt&lt;br&gt;to classify" style="edgeLabel;html=1;align=center;verticalAlign=middle;resizable=0;points=[];" vertex="1" connectable="0" parent="EbzEwfZ4jWfW755_oU14-23">
          <mxGeometry x="-0.0308" y="4" relative="1" as="geometry">
            <mxPoint as="offset" />
          </mxGeometry>
        </mxCell>
        <mxCell id="EbzEwfZ4jWfW755_oU14-26" value="Text classification" style="rounded=0;whiteSpace=wrap;html=1;fillColor=#e1d5e7;strokeColor=#9673a6;" vertex="1" parent="1">
          <mxGeometry x="1030" y="490" width="120" height="60" as="geometry" />
        </mxCell>
        <mxCell id="EbzEwfZ4jWfW755_oU14-27" value="PostgreSQL&lt;br&gt;DB" style="rounded=0;whiteSpace=wrap;html=1;fillColor=#e1d5e7;strokeColor=#9673a6;" vertex="1" parent="1">
          <mxGeometry x="265" y="670" width="120" height="60" as="geometry" />
        </mxCell>
        <mxCell id="EbzEwfZ4jWfW755_oU14-28" value="" style="endArrow=classic;html=1;rounded=0;entryX=0.5;entryY=0;entryDx=0;entryDy=0;exitX=0.5;exitY=1;exitDx=0;exitDy=0;" edge="1" parent="1" source="EbzEwfZ4jWfW755_oU14-18" target="EbzEwfZ4jWfW755_oU14-27">
          <mxGeometry width="50" height="50" relative="1" as="geometry">
            <mxPoint x="370" y="600" as="sourcePoint" />
            <mxPoint x="680" y="410" as="targetPoint" />
          </mxGeometry>
        </mxCell>
        <mxCell id="EbzEwfZ4jWfW755_oU14-29" value="update status of prompt&lt;br&gt;to CLASSIFIED and set&lt;br&gt;classification to&lt;br&gt;[good|neutral|bad]" style="edgeLabel;html=1;align=center;verticalAlign=middle;resizable=0;points=[];" vertex="1" connectable="0" parent="EbzEwfZ4jWfW755_oU14-28">
          <mxGeometry x="-0.1333" y="-3" relative="1" as="geometry">
            <mxPoint as="offset" />
          </mxGeometry>
        </mxCell>
        <mxCell id="EbzEwfZ4jWfW755_oU14-30" value="orchestration-service" style="rounded=0;whiteSpace=wrap;html=1;fillColor=#d5e8d4;strokeColor=#82b366;" vertex="1" parent="1">
          <mxGeometry x="265" y="850" width="120" height="60" as="geometry" />
        </mxCell>
        <mxCell id="EbzEwfZ4jWfW755_oU14-31" value="" style="endArrow=classic;html=1;rounded=0;entryX=0.5;entryY=1;entryDx=0;entryDy=0;exitX=0.5;exitY=0;exitDx=0;exitDy=0;" edge="1" parent="1" source="EbzEwfZ4jWfW755_oU14-30" target="EbzEwfZ4jWfW755_oU14-27">
          <mxGeometry width="50" height="50" relative="1" as="geometry">
            <mxPoint x="325" y="840" as="sourcePoint" />
            <mxPoint x="660" y="600" as="targetPoint" />
          </mxGeometry>
        </mxCell>
        <mxCell id="EbzEwfZ4jWfW755_oU14-32" value="check for CLASSIFIED prompts" style="edgeLabel;html=1;align=center;verticalAlign=middle;resizable=0;points=[];" vertex="1" connectable="0" parent="EbzEwfZ4jWfW755_oU14-31">
          <mxGeometry x="-0.1167" y="-3" relative="1" as="geometry">
            <mxPoint as="offset" />
          </mxGeometry>
        </mxCell>
        <mxCell id="EbzEwfZ4jWfW755_oU14-34" value="RabbitMQ&lt;br&gt;Queue: classification" style="rounded=0;whiteSpace=wrap;html=1;fillColor=#e1d5e7;strokeColor=#9673a6;" vertex="1" parent="1">
          <mxGeometry x="510" y="850" width="120" height="60" as="geometry" />
        </mxCell>
        <mxCell id="EbzEwfZ4jWfW755_oU14-36" value="" style="endArrow=classic;html=1;rounded=0;exitX=1;exitY=0.5;exitDx=0;exitDy=0;" edge="1" parent="1" source="EbzEwfZ4jWfW755_oU14-34">
          <mxGeometry width="50" height="50" relative="1" as="geometry">
            <mxPoint x="395" y="890" as="sourcePoint" />
            <mxPoint x="760" y="880" as="targetPoint" />
          </mxGeometry>
        </mxCell>
        <mxCell id="EbzEwfZ4jWfW755_oU14-37" value="check for prompt&lt;br&gt;to generate&lt;br&gt;image" style="edgeLabel;html=1;align=center;verticalAlign=middle;resizable=0;points=[];" vertex="1" connectable="0" parent="EbzEwfZ4jWfW755_oU14-36">
          <mxGeometry x="-0.0308" y="4" relative="1" as="geometry">
            <mxPoint as="offset" />
          </mxGeometry>
        </mxCell>
        <mxCell id="EbzEwfZ4jWfW755_oU14-38" value="" style="endArrow=classic;html=1;rounded=0;exitX=1;exitY=0.5;exitDx=0;exitDy=0;entryX=0;entryY=0.5;entryDx=0;entryDy=0;" edge="1" parent="1" source="EbzEwfZ4jWfW755_oU14-30" target="EbzEwfZ4jWfW755_oU14-34">
          <mxGeometry width="50" height="50" relative="1" as="geometry">
            <mxPoint x="610" y="750" as="sourcePoint" />
            <mxPoint x="660" y="700" as="targetPoint" />
          </mxGeometry>
        </mxCell>
        <mxCell id="EbzEwfZ4jWfW755_oU14-39" value="put prompt to&lt;br&gt;generate image&lt;br&gt;if classification is&lt;br&gt;[good|neutral]" style="edgeLabel;html=1;align=center;verticalAlign=middle;resizable=0;points=[];" vertex="1" connectable="0" parent="EbzEwfZ4jWfW755_oU14-38">
          <mxGeometry x="-0.216" y="2" relative="1" as="geometry">
            <mxPoint as="offset" />
          </mxGeometry>
        </mxCell>
        <mxCell id="EbzEwfZ4jWfW755_oU14-40" value="Image generation" style="rounded=0;whiteSpace=wrap;html=1;fillColor=#e1d5e7;strokeColor=#9673a6;" vertex="1" parent="1">
          <mxGeometry x="1030" y="850" width="120" height="60" as="geometry" />
        </mxCell>
      </root>
    </mxGraphModel>
  </diagram>
</mxfile>
